<svg width="720" height="1024" viewBox="0 0 720 1024" fill="none" xmlns="http://www.w3.org/2000/svg">
<g clip-path="url(#clip0)">
<rect width="720" height="1024" fill="white"/>
<g filter="url(#filter0_d)">
<path d="M78.24 212L66.12 240H59.72L47.64 212H54.64L63.16 232L71.8 212H78.24ZM99.0163 229.32C99.0163 229.4 98.9763 229.96 98.8963 231H82.6163C82.9096 232.333 83.6029 233.387 84.6963 234.16C85.7896 234.933 87.1496 235.32 88.7763 235.32C89.8963 235.32 90.8829 235.16 91.7363 234.84C92.6163 234.493 93.4296 233.96 94.1763 233.24L97.4963 236.84C95.4696 239.16 92.5096 240.32 88.6163 240.32C86.1896 240.32 84.0429 239.853 82.1762 238.92C80.3096 237.96 78.8696 236.64 77.8562 234.96C76.8429 233.28 76.3362 231.373 76.3362 229.24C76.3362 227.133 76.8296 225.24 77.8162 223.56C78.8296 221.853 80.2029 220.533 81.9362 219.6C83.6962 218.64 85.6562 218.16 87.8162 218.16C89.9229 218.16 91.8296 218.613 93.5363 219.52C95.2429 220.427 96.5763 221.733 97.5363 223.44C98.5229 225.12 99.0163 227.08 99.0163 229.32ZM87.8563 222.88C86.4429 222.88 85.2563 223.28 84.2962 224.08C83.3362 224.88 82.7496 225.973 82.5362 227.36H93.1363C92.9229 226 92.3363 224.92 91.3763 224.12C90.4163 223.293 89.2429 222.88 87.8563 222.88ZM100.971 248.08C98.784 248.08 97.1173 247.68 95.9706 246.88L97.6506 242.36C98.3706 242.867 99.2506 243.12 100.291 243.12C101.091 243.12 101.717 242.853 102.171 242.32C102.624 241.813 102.851 241.04 102.851 240V218.48H109.091V239.96C109.091 242.467 108.371 244.44 106.931 245.88C105.517 247.347 103.531 248.08 100.971 248.08ZM105.971 215.48C104.824 215.48 103.891 215.147 103.171 214.48C102.451 213.813 102.091 212.987 102.091 212C102.091 211.013 102.451 210.187 103.171 209.52C103.891 208.853 104.824 208.52 105.971 208.52C107.117 208.52 108.051 208.84 108.771 209.48C109.491 210.12 109.851 210.92 109.851 211.88C109.851 212.92 109.491 213.787 108.771 214.48C108.051 215.147 107.117 215.48 105.971 215.48ZM122.916 218.16C126.25 218.16 128.81 218.96 130.596 220.56C132.383 222.133 133.276 224.52 133.276 227.72V240H127.436V237.32C126.263 239.32 124.076 240.32 120.876 240.32C119.223 240.32 117.783 240.04 116.556 239.48C115.356 238.92 114.436 238.147 113.796 237.16C113.156 236.173 112.836 235.053 112.836 233.8C112.836 231.8 113.583 230.227 115.076 229.08C116.596 227.933 118.93 227.36 122.076 227.36H127.036C127.036 226 126.623 224.96 125.796 224.24C124.97 223.493 123.73 223.12 122.076 223.12C120.93 223.12 119.796 223.307 118.676 223.68C117.583 224.027 116.65 224.507 115.876 225.12L113.636 220.76C114.81 219.933 116.21 219.293 117.836 218.84C119.49 218.387 121.183 218.16 122.916 218.16ZM122.436 236.12C123.503 236.12 124.45 235.88 125.276 235.4C126.103 234.893 126.69 234.16 127.036 233.2V231H122.756C120.196 231 118.916 231.84 118.916 233.52C118.916 234.32 119.223 234.96 119.836 235.44C120.476 235.893 121.343 236.12 122.436 236.12ZM159.292 240.32C157.025 240.32 154.985 239.853 153.172 238.92C151.385 237.96 149.985 236.64 148.972 234.96C147.959 233.28 147.452 231.373 147.452 229.24C147.452 227.107 147.959 225.2 148.972 223.52C149.985 221.84 151.385 220.533 153.172 219.6C154.985 218.64 157.025 218.16 159.292 218.16C161.559 218.16 163.585 218.64 165.372 219.6C167.159 220.533 168.559 221.84 169.572 223.52C170.585 225.2 171.092 227.107 171.092 229.24C171.092 231.373 170.585 233.28 169.572 234.96C168.559 236.64 167.159 237.96 165.372 238.92C163.585 239.853 161.559 240.32 159.292 240.32ZM159.292 235.2C160.892 235.2 162.199 234.667 163.212 233.6C164.252 232.507 164.772 231.053 164.772 229.24C164.772 227.427 164.252 225.987 163.212 224.92C162.199 223.827 160.892 223.28 159.292 223.28C157.692 223.28 156.372 223.827 155.332 224.92C154.292 225.987 153.772 227.427 153.772 229.24C153.772 231.053 154.292 232.507 155.332 233.6C156.372 234.667 157.692 235.2 159.292 235.2ZM207.231 218.48V247.76H200.991V237.72C199.444 239.453 197.298 240.32 194.551 240.32C192.524 240.32 190.684 239.867 189.031 238.96C187.404 238.053 186.124 236.76 185.191 235.08C184.258 233.4 183.791 231.453 183.791 229.24C183.791 227.027 184.258 225.08 185.191 223.4C186.124 221.72 187.404 220.427 189.031 219.52C190.684 218.613 192.524 218.16 194.551 218.16C197.484 218.16 199.724 219.093 201.271 220.96V218.48H207.231ZM195.631 235.2C197.204 235.2 198.511 234.667 199.551 233.6C200.591 232.507 201.111 231.053 201.111 229.24C201.111 227.427 200.591 225.987 199.551 224.92C198.511 223.827 197.204 223.28 195.631 223.28C194.031 223.28 192.711 223.827 191.671 224.92C190.631 225.987 190.111 227.427 190.111 229.24C190.111 231.053 190.631 232.507 191.671 233.6C192.711 234.667 194.031 235.2 195.631 235.2ZM234.088 218.48V240H228.168V237.44C227.341 238.373 226.355 239.093 225.208 239.6C224.061 240.08 222.821 240.32 221.488 240.32C218.661 240.32 216.421 239.507 214.768 237.88C213.115 236.253 212.288 233.84 212.288 230.64V218.48H218.528V229.72C218.528 233.187 219.981 234.92 222.888 234.92C224.381 234.92 225.581 234.44 226.488 233.48C227.395 232.493 227.848 231.04 227.848 229.12V218.48H234.088ZM260.349 229.32C260.349 229.4 260.309 229.96 260.229 231H243.949C244.242 232.333 244.936 233.387 246.029 234.16C247.122 234.933 248.482 235.32 250.109 235.32C251.229 235.32 252.216 235.16 253.069 234.84C253.949 234.493 254.762 233.96 255.509 233.24L258.829 236.84C256.802 239.16 253.842 240.32 249.949 240.32C247.522 240.32 245.376 239.853 243.509 238.92C241.642 237.96 240.202 236.64 239.189 234.96C238.176 233.28 237.669 231.373 237.669 229.24C237.669 227.133 238.162 225.24 239.149 223.56C240.162 221.853 241.536 220.533 243.269 219.6C245.029 218.64 246.989 218.16 249.149 218.16C251.256 218.16 253.162 218.613 254.869 219.52C256.576 220.427 257.909 221.733 258.869 223.44C259.856 225.12 260.349 227.08 260.349 229.32ZM249.189 222.88C247.776 222.88 246.589 223.28 245.629 224.08C244.669 224.88 244.082 225.973 243.869 227.36H254.469C254.256 226 253.669 224.92 252.709 224.12C251.749 223.293 250.576 222.88 249.189 222.88ZM288.512 238.96C287.898 239.413 287.138 239.76 286.232 240C285.352 240.213 284.418 240.32 283.432 240.32C280.872 240.32 278.885 239.667 277.472 238.36C276.085 237.053 275.392 235.133 275.392 232.6V223.76H272.072V218.96H275.392V213.72H281.632V218.96H286.992V223.76H281.632V232.52C281.632 233.427 281.858 234.133 282.312 234.64C282.792 235.12 283.458 235.36 284.312 235.36C285.298 235.36 286.138 235.093 286.832 234.56L288.512 238.96ZM311.83 229.32C311.83 229.4 311.79 229.96 311.71 231H295.43C295.724 232.333 296.417 233.387 297.51 234.16C298.604 234.933 299.964 235.32 301.59 235.32C302.71 235.32 303.697 235.16 304.55 234.84C305.43 234.493 306.244 233.96 306.99 233.24L310.31 236.84C308.284 239.16 305.324 240.32 301.43 240.32C299.004 240.32 296.857 239.853 294.99 238.92C293.124 237.96 291.684 236.64 290.67 234.96C289.657 233.28 289.15 231.373 289.15 229.24C289.15 227.133 289.644 225.24 290.63 223.56C291.644 221.853 293.017 220.533 294.75 219.6C296.51 218.64 298.47 218.16 300.63 218.16C302.737 218.16 304.644 218.613 306.35 219.52C308.057 220.427 309.39 221.733 310.35 223.44C311.337 225.12 311.83 227.08 311.83 229.32ZM300.67 222.88C299.257 222.88 298.07 223.28 297.11 224.08C296.15 224.88 295.564 225.973 295.35 227.36H305.95C305.737 226 305.15 224.92 304.19 224.12C303.23 223.293 302.057 222.88 300.67 222.88ZM334.793 218.16C338.126 218.16 340.686 218.96 342.473 220.56C344.259 222.133 345.153 224.52 345.153 227.72V240H339.313V237.32C338.139 239.32 335.953 240.32 332.753 240.32C331.099 240.32 329.659 240.04 328.433 239.48C327.233 238.92 326.313 238.147 325.673 237.16C325.033 236.173 324.713 235.053 324.713 233.8C324.713 231.8 325.459 230.227 326.953 229.08C328.473 227.933 330.806 227.36 333.953 227.36H338.913C338.913 226 338.499 224.96 337.673 224.24C336.846 223.493 335.606 223.12 333.953 223.12C332.806 223.12 331.673 223.307 330.553 223.68C329.459 224.027 328.526 224.507 327.753 225.12L325.513 220.76C326.686 219.933 328.086 219.293 329.713 218.84C331.366 218.387 333.059 218.16 334.793 218.16ZM334.313 236.12C335.379 236.12 336.326 235.88 337.153 235.4C337.979 234.893 338.566 234.16 338.913 233.2V231H334.633C332.073 231 330.793 231.84 330.793 233.52C330.793 234.32 331.099 234.96 331.713 235.44C332.353 235.893 333.219 236.12 334.313 236.12ZM372.635 218.48V236.4C372.635 240.347 371.608 243.28 369.555 245.2C367.501 247.12 364.501 248.08 360.555 248.08C358.475 248.08 356.501 247.827 354.635 247.32C352.768 246.813 351.221 246.08 349.995 245.12L352.475 240.64C353.381 241.387 354.528 241.973 355.915 242.4C357.301 242.853 358.688 243.08 360.075 243.08C362.235 243.08 363.821 242.587 364.835 241.6C365.875 240.64 366.395 239.173 366.395 237.2V236.28C364.768 238.067 362.501 238.96 359.595 238.96C357.621 238.96 355.808 238.533 354.155 237.68C352.528 236.8 351.235 235.573 350.275 234C349.315 232.427 348.835 230.613 348.835 228.56C348.835 226.507 349.315 224.693 350.275 223.12C351.235 221.547 352.528 220.333 354.155 219.48C355.808 218.6 357.621 218.16 359.595 218.16C362.715 218.16 365.088 219.187 366.715 221.24V218.48H372.635ZM360.835 233.84C362.488 233.84 363.835 233.36 364.875 232.4C365.941 231.413 366.475 230.133 366.475 228.56C366.475 226.987 365.941 225.72 364.875 224.76C363.835 223.773 362.488 223.28 360.835 223.28C359.181 223.28 357.821 223.773 356.755 224.76C355.688 225.72 355.155 226.987 355.155 228.56C355.155 230.133 355.688 231.413 356.755 232.4C357.821 233.36 359.181 233.84 360.835 233.84ZM399.522 218.48V240H393.602V237.44C392.776 238.373 391.789 239.093 390.642 239.6C389.496 240.08 388.256 240.32 386.922 240.32C384.096 240.32 381.856 239.507 380.202 237.88C378.549 236.253 377.722 233.84 377.722 230.64V218.48H383.962V229.72C383.962 233.187 385.416 234.92 388.322 234.92C389.816 234.92 391.016 234.44 391.922 233.48C392.829 232.493 393.282 231.04 393.282 229.12V218.48H399.522ZM413.383 218.16C416.717 218.16 419.277 218.96 421.063 220.56C422.85 222.133 423.743 224.52 423.743 227.72V240H417.903V237.32C416.73 239.32 414.543 240.32 411.343 240.32C409.69 240.32 408.25 240.04 407.023 239.48C405.823 238.92 404.903 238.147 404.263 237.16C403.623 236.173 403.303 235.053 403.303 233.8C403.303 231.8 404.05 230.227 405.543 229.08C407.063 227.933 409.397 227.36 412.543 227.36H417.503C417.503 226 417.09 224.96 416.263 224.24C415.437 223.493 414.197 223.12 412.543 223.12C411.397 223.12 410.263 223.307 409.143 223.68C408.05 224.027 407.117 224.507 406.343 225.12L404.103 220.76C405.277 219.933 406.677 219.293 408.303 218.84C409.957 218.387 411.65 218.16 413.383 218.16ZM412.903 236.12C413.97 236.12 414.917 235.88 415.743 235.4C416.57 234.893 417.157 234.16 417.503 233.2V231H413.223C410.663 231 409.383 231.84 409.383 233.52C409.383 234.32 409.69 234.96 410.303 235.44C410.943 235.893 411.81 236.12 412.903 236.12ZM434.751 221.32C435.498 220.28 436.498 219.493 437.751 218.96C439.031 218.427 440.498 218.16 442.151 218.16V223.92C441.458 223.867 440.991 223.84 440.751 223.84C438.964 223.84 437.564 224.347 436.551 225.36C435.538 226.347 435.031 227.84 435.031 229.84V240H428.791V218.48H434.751V221.32ZM466.986 210.32V240H461.026V237.52C459.479 239.387 457.239 240.32 454.306 240.32C452.279 240.32 450.439 239.867 448.786 238.96C447.159 238.053 445.879 236.76 444.946 235.08C444.013 233.4 443.546 231.453 443.546 229.24C443.546 227.027 444.013 225.08 444.946 223.4C445.879 221.72 447.159 220.427 448.786 219.52C450.439 218.613 452.279 218.16 454.306 218.16C457.053 218.16 459.199 219.027 460.746 220.76V210.32H466.986ZM455.386 235.2C456.959 235.2 458.266 234.667 459.306 233.6C460.346 232.507 460.866 231.053 460.866 229.24C460.866 227.427 460.346 225.987 459.306 224.92C458.266 223.827 456.959 223.28 455.386 223.28C453.786 223.28 452.466 223.827 451.426 224.92C450.386 225.987 449.866 227.427 449.866 229.24C449.866 231.053 450.386 232.507 451.426 233.6C452.466 234.667 453.786 235.2 455.386 235.2ZM480.841 218.16C484.175 218.16 486.735 218.96 488.521 220.56C490.308 222.133 491.201 224.52 491.201 227.72V240H485.361V237.32C484.188 239.32 482.001 240.32 478.801 240.32C477.148 240.32 475.708 240.04 474.481 239.48C473.281 238.92 472.361 238.147 471.721 237.16C471.081 236.173 470.761 235.053 470.761 233.8C470.761 231.8 471.508 230.227 473.001 229.08C474.521 227.933 476.855 227.36 480.001 227.36H484.961C484.961 226 484.548 224.96 483.721 224.24C482.895 223.493 481.655 223.12 480.001 223.12C478.855 223.12 477.721 223.307 476.601 223.68C475.508 224.027 474.575 224.507 473.801 225.12L471.561 220.76C472.735 219.933 474.135 219.293 475.761 218.84C477.415 218.387 479.108 218.16 480.841 218.16ZM480.361 236.12C481.428 236.12 482.375 235.88 483.201 235.4C484.028 234.893 484.615 234.16 484.961 233.2V231H480.681C478.121 231 476.841 231.84 476.841 233.52C476.841 234.32 477.148 234.96 477.761 235.44C478.401 235.893 479.268 236.12 480.361 236.12ZM520.057 218.16C522.724 218.16 524.87 218.96 526.497 220.56C528.15 222.16 528.977 224.533 528.977 227.68V240H522.737V228.64C522.737 226.933 522.364 225.667 521.617 224.84C520.87 223.987 519.79 223.56 518.377 223.56C516.804 223.56 515.55 224.053 514.617 225.04C513.684 226 513.217 227.44 513.217 229.36V240H506.977V218.48H512.937V221C513.764 220.093 514.79 219.4 516.017 218.92C517.244 218.413 518.59 218.16 520.057 218.16ZM544.508 240.32C542.241 240.32 540.201 239.853 538.388 238.92C536.601 237.96 535.201 236.64 534.188 234.96C533.174 233.28 532.668 231.373 532.668 229.24C532.668 227.107 533.174 225.2 534.188 223.52C535.201 221.84 536.601 220.533 538.388 219.6C540.201 218.64 542.241 218.16 544.508 218.16C546.774 218.16 548.801 218.64 550.588 219.6C552.374 220.533 553.774 221.84 554.788 223.52C555.801 225.2 556.308 227.107 556.308 229.24C556.308 231.373 555.801 233.28 554.788 234.96C553.774 236.64 552.374 237.96 550.588 238.92C548.801 239.853 546.774 240.32 544.508 240.32ZM544.508 235.2C546.108 235.2 547.414 234.667 548.428 233.6C549.468 232.507 549.988 231.053 549.988 229.24C549.988 227.427 549.468 225.987 548.428 224.92C547.414 223.827 546.108 223.28 544.508 223.28C542.908 223.28 541.588 223.827 540.548 224.92C539.508 225.987 538.988 227.427 538.988 229.24C538.988 231.053 539.508 232.507 540.548 233.6C541.588 234.667 542.908 235.2 544.508 235.2ZM78.44 276.16C81.1333 276.16 83.2667 276.96 84.84 278.56C86.44 280.133 87.24 282.507 87.24 285.68V298H81V286.64C81 284.933 80.64 283.667 79.92 282.84C79.2267 281.987 78.2267 281.56 76.92 281.56C75.4533 281.56 74.2933 282.04 73.44 283C72.5867 283.933 72.16 285.333 72.16 287.2V298H65.92V286.64C65.92 283.253 64.56 281.56 61.84 281.56C60.4 281.56 59.2533 282.04 58.4 283C57.5467 283.933 57.12 285.333 57.12 287.2V298H50.88V276.48H56.84V278.96C57.64 278.053 58.6133 277.36 59.76 276.88C60.9333 276.4 62.2133 276.16 63.6 276.16C65.12 276.16 66.4933 276.467 67.72 277.08C68.9467 277.667 69.9333 278.533 70.68 279.68C71.56 278.56 72.6667 277.693 74 277.08C75.36 276.467 76.84 276.16 78.44 276.16ZM113.913 276.48V298H107.993V295.44C107.166 296.373 106.18 297.093 105.033 297.6C103.886 298.08 102.646 298.32 101.313 298.32C98.4865 298.32 96.2465 297.507 94.5931 295.88C92.9398 294.253 92.1131 291.84 92.1131 288.64V276.48H98.3531V287.72C98.3531 291.187 99.8065 292.92 102.713 292.92C104.206 292.92 105.406 292.44 106.313 291.48C107.22 290.493 107.673 289.04 107.673 287.12V276.48H113.913ZM132.174 276.16C134.841 276.16 136.987 276.96 138.614 278.56C140.267 280.16 141.094 282.533 141.094 285.68V298H134.854V286.64C134.854 284.933 134.481 283.667 133.734 282.84C132.987 281.987 131.907 281.56 130.494 281.56C128.921 281.56 127.667 282.053 126.734 283.04C125.801 284 125.334 285.44 125.334 287.36V298H119.094V276.48H125.054V279C125.881 278.093 126.907 277.4 128.134 276.92C129.361 276.413 130.707 276.16 132.174 276.16ZM168.305 268.32V298H162.345V295.52C160.798 297.387 158.558 298.32 155.625 298.32C153.598 298.32 151.758 297.867 150.105 296.96C148.478 296.053 147.198 294.76 146.265 293.08C145.331 291.4 144.865 289.453 144.865 287.24C144.865 285.027 145.331 283.08 146.265 281.4C147.198 279.72 148.478 278.427 150.105 277.52C151.758 276.613 153.598 276.16 155.625 276.16C158.371 276.16 160.518 277.027 162.065 278.76V268.32H168.305ZM156.705 293.2C158.278 293.2 159.585 292.667 160.625 291.6C161.665 290.507 162.185 289.053 162.185 287.24C162.185 285.427 161.665 283.987 160.625 282.92C159.585 281.827 158.278 281.28 156.705 281.28C155.105 281.28 153.785 281.827 152.745 282.92C151.705 283.987 151.185 285.427 151.185 287.24C151.185 289.053 151.705 290.507 152.745 291.6C153.785 292.667 155.105 293.2 156.705 293.2ZM183.72 298.32C181.453 298.32 179.413 297.853 177.6 296.92C175.813 295.96 174.413 294.64 173.4 292.96C172.387 291.28 171.88 289.373 171.88 287.24C171.88 285.107 172.387 283.2 173.4 281.52C174.413 279.84 175.813 278.533 177.6 277.6C179.413 276.64 181.453 276.16 183.72 276.16C185.987 276.16 188.013 276.64 189.8 277.6C191.587 278.533 192.987 279.84 194 281.52C195.013 283.2 195.52 285.107 195.52 287.24C195.52 289.373 195.013 291.28 194 292.96C192.987 294.64 191.587 295.96 189.8 296.92C188.013 297.853 185.987 298.32 183.72 298.32ZM183.72 293.2C185.32 293.2 186.627 292.667 187.64 291.6C188.68 290.507 189.2 289.053 189.2 287.24C189.2 285.427 188.68 283.987 187.64 282.92C186.627 281.827 185.32 281.28 183.72 281.28C182.12 281.28 180.8 281.827 179.76 282.92C178.72 283.987 178.2 285.427 178.2 287.24C178.2 289.053 178.72 290.507 179.76 291.6C180.8 292.667 182.12 293.2 183.72 293.2ZM201.178 298.32C200.084 298.32 199.164 297.947 198.418 297.2C197.671 296.453 197.298 295.52 197.298 294.4C197.298 293.253 197.671 292.333 198.418 291.64C199.164 290.92 200.084 290.56 201.178 290.56C202.271 290.56 203.191 290.92 203.938 291.64C204.684 292.333 205.058 293.253 205.058 294.4C205.058 295.52 204.684 296.453 203.938 297.2C203.191 297.947 202.271 298.32 201.178 298.32Z" fill="black"/>
</g>
<circle cx="-126" cy="-23" r="200" fill="#FFB703"/>
<circle cx="545" cy="1024" r="175" fill="#FFB703"/>
<circle cx="674" cy="80" r="175" fill="#FFB703"/>
</g>
<defs>
<filter id="filter0_d" x="47.64" y="208.52" width="516.668" height="97.8" filterUnits="userSpaceOnUse" color-interpolation-filters="sRGB">
<feFlood flood-opacity="0" result="BackgroundImageFix"/>
<feColorMatrix in="SourceAlpha" type="matrix" values="0 0 0 0 0 0 0 0 0 0 0 0 0 0 0 0 0 0 127 0"/>
<feOffset dx="4" dy="4"/>
<feGaussianBlur stdDeviation="2"/>
<feColorMatrix type="matrix" values="0 0 0 0 0 0 0 0 0 0 0 0 0 0 0 0 0 0 0.25 0"/>
<feBlend mode="normal" in2="BackgroundImageFix" result="effect1_dropShadow"/>
<feBlend mode="normal" in="SourceGraphic" in2="effect1_dropShadow" result="shape"/>
</filter>
<clipPath id="clip0">
<rect width="720" height="1024" fill="white"/>
</clipPath>
</defs>
</svg>
