<svg width="720" height="1024" viewBox="0 0 720 1024" fill="none" xmlns="http://www.w3.org/2000/svg">
<g clip-path="url(#clip0)">
<path d="M152.872 -19.0938L-73.1282 204.906" stroke="#DC2F02" stroke-width="11"/>
<path d="M189.872 0.906372L-36.1282 224.906" stroke="#DC2F02" stroke-width="11"/>
<path d="M36 1174C118.843 1174 186 1106.84 186 1024C186 941.157 118.843 874 36 874C-46.8427 874 -114 941.157 -114 1024C-114 1106.84 -46.8427 1174 36 1174Z" fill="#DC2F02"/>
<path d="M594 177C704.457 177 794 87.4569 794 -23C794 -133.457 704.457 -223 594 -223C483.543 -223 394 -133.457 394 -23C394 87.4569 483.543 177 594 177Z" fill="#DC2F02"/>
<g filter="url(#filter0_d)">
<path d="M217.765 312.938C217.014 313.094 215.441 313.594 214.262 314.031C213.118 314.469 211.903 314.812 211.617 314.812C211.295 314.812 209.651 315.219 207.935 315.719C206.183 316.219 204.217 316.719 203.538 316.812C202.823 316.906 200.75 317.875 198.891 318.906C197.032 319.969 194.78 321.156 193.922 321.531C192.778 322.062 192.135 322.625 191.599 323.594C191.17 324.344 190.348 325.25 189.704 325.594C189.061 325.938 188.024 326.5 187.381 326.844C185.879 327.656 183.449 330.875 182.019 333.906C180.946 336.219 180.839 336.312 179.052 336.969C176.871 337.75 175.191 339.219 174.619 340.812C174.369 341.469 174.226 343.531 174.262 345.656L174.333 349.344L171.831 350.594C164.718 354.188 162.144 356.906 161.786 361.125C161.679 362.344 161.751 363.25 161.965 363.25C162.144 363.25 163.788 362.969 165.647 362.594C170.937 361.594 175.191 361.062 178.551 361.062H181.626L181.804 363.969C182.019 367.594 183.127 370 185.093 371.125C186.273 371.781 186.38 371.969 186.38 373.312C186.38 377.594 189.597 379.5 196.067 379.094C198.105 378.969 199.427 379.094 201.25 379.531C204.146 380.219 206.04 380.25 208.006 379.656C208.757 379.406 209.436 379.25 209.472 379.281C209.508 379.312 208.936 381.469 208.149 384.031C196.818 421.812 193.601 434.719 191.42 451.375C190.133 461.125 189.883 465.406 189.99 473.719C190.276 491.406 190.097 501.031 189.275 510.562C188.596 518.469 188.56 520.438 188.882 523.375C189.954 532.875 193.529 539.406 202.537 548.344C216.407 562.094 220.875 565.969 228.882 571.219C237.783 577.094 245.826 580.688 253.011 582C261.125 583.469 267.273 586.312 286.648 597.625C299.552 605.188 300.589 606.094 303.663 612.844C307.381 621.031 310.026 623.562 323.466 631.531C326.576 633.406 330.222 635.719 331.509 636.656C332.796 637.594 333.904 638.406 333.94 638.438C334.19 638.594 332.153 645.25 330.544 649.656C327.434 658.125 321.107 672.094 317.747 677.938C316.782 679.625 316.21 680.219 315.316 680.531C313.386 681.25 310.133 681.688 304.521 681.969C298.516 682.281 297.3 682.594 293.225 684.656C291.76 685.438 290.33 686.062 290.115 686.062C289.114 686.062 286.684 688.938 285.969 691C285.718 691.656 285.754 691.688 287.184 691.5C288.006 691.375 290.044 691.469 291.76 691.656C293.475 691.875 297.336 692.156 300.374 692.25L305.879 692.469L300.374 695.656C297.336 697.406 294.548 699.125 294.19 699.469C293.261 700.375 293.118 702.438 293.761 704.906C294.083 706.094 294.333 707.875 294.333 708.906V710.781L295.942 709.812C296.8 709.281 298.301 708.531 299.23 708.094C300.16 707.688 302.769 706 305.021 704.344C307.273 702.719 309.99 701 311.027 700.562C312.778 699.812 313.207 699.75 316.246 699.906C318.748 700 320.071 700.25 321.822 700.875C324.432 701.844 325.611 701.75 326.219 700.562C326.541 699.938 326.505 699.5 326.04 698.312C324.718 695.094 325.504 692.312 328.828 688.344C333.225 683.094 338.551 671.656 348.131 646.75L352.492 635.406L357.104 632.688C362.787 629.312 363.788 628.469 367.756 623.469C371.867 618.281 372.403 617.938 376.657 617.562C379.91 617.312 395.995 615.219 396.818 614.969C397.104 614.906 397.282 615.875 397.425 618.188C397.997 626.625 398.426 631.688 398.748 633.438C398.927 634.5 400.142 638.594 401.429 642.5C402.93 647.188 403.824 650.469 403.967 652.031C404.146 654.281 404.11 654.531 403.002 656.312C402.394 657.344 400.464 659.594 398.712 661.281L395.602 664.375L391.885 665.562C384.199 668.031 380.16 671.094 378.766 675.562L378.373 676.75L379.516 676.594C380.16 676.5 383.163 675.906 386.201 675.312C392.743 674.031 402.323 672.469 406.505 672.031C409.4 671.719 415.12 669.938 421.697 667.344C424.592 666.188 425.593 666.156 428.918 667.031C431.098 667.594 431.956 668.062 434.995 670.312C441.107 674.844 440.893 675.281 437.104 666.125C433.207 656.781 433.207 656.781 426.952 653.875C421.804 651.469 419.052 649.812 418.122 648.625C417.193 647.375 415.334 640.812 413.404 631.688C411.974 625.094 409.436 612.188 409.543 612.125C409.579 612.094 412.188 610.719 415.334 609.031C426.415 603.125 432.993 599.062 439.284 594.312C448.793 587.125 452.868 584.281 457.693 581.531C460.16 580.125 462.805 578.344 463.627 577.594C466.987 574.406 470.205 569.219 471.599 564.906C472.707 561.344 473.958 559.625 477.926 556.188C479.928 554.438 481.751 552.719 481.965 552.344C482.823 550.938 483.145 548.406 483.395 540.125C483.609 533.438 483.788 531.281 484.217 530.438C485.325 528.219 488.471 525.062 498.444 516.219C504.056 511.219 509.239 506.375 509.919 505.438C513.636 500.5 514.995 496.5 515.602 488.906C516.317 479.875 517.247 478.125 524.074 472.906C525.075 472.094 525.897 470 526.505 466.406C526.934 463.938 527.22 463.281 528.221 462.125C529.829 460.344 532.868 458.125 535.477 456.875C537.121 456.094 537.872 455.469 538.766 454.156C539.802 452.719 539.945 452.25 539.802 450.906C539.731 450.031 539.23 448.438 538.694 447.312C537.121 444.062 537.05 444.281 539.552 444.031C541.625 443.812 541.768 443.75 542.662 442.5C543.163 441.812 544.056 440.75 544.664 440.188C545.629 439.344 545.808 438.906 545.915 437.219C546.022 435.531 545.951 435.156 545.129 434.188C543.699 432.5 543.234 431.406 542.626 428.531C541.518 422.969 541.482 423.188 543.484 421.156C544.485 420.156 545.379 419 545.522 418.594C545.701 417.906 545.307 415.719 544.7 414.375C544.449 413.812 544.628 413.812 548.346 414.031C552.707 414.281 554.101 414.812 556.853 417.281C557.961 418.281 558.39 418.469 558.891 418.219C560.249 417.594 560.75 413.562 559.749 411.438C559.391 410.688 556.46 407.906 551.527 403.562L543.877 396.844L543.306 394.812C543.02 393.688 542.769 391.906 542.769 390.812C542.769 388.875 542.734 388.812 540.946 387.125C539.91 386.188 538.373 385 537.479 384.5C536.049 383.688 535.549 383.562 533.332 383.562C531.545 383.562 530.044 383.812 528.292 384.344C526.934 384.781 525.754 385.125 525.683 385.125C525.611 385.125 525.575 384.25 525.611 383.156C525.647 382.094 525.647 380.969 525.647 380.656C525.611 380.375 524.432 379.031 522.966 377.688C519.534 374.531 519.356 374.219 520.142 372.781C521.286 370.688 519.427 369.656 513.136 368.875L509.025 368.375L507.702 366.5L506.415 364.656L504.449 364.688L502.519 364.719L501.375 362.906C500.053 360.812 498.909 360.156 496.156 359.906C494.405 359.75 494.012 359.875 488.793 362.156C481.643 365.281 477.747 367.344 475.852 369C473.171 371.344 464.092 385.188 455.727 399.656C451.509 406.938 450.616 408.25 447.005 412.406C442.716 417.312 441.214 418.531 436.496 421C429.74 424.531 427.524 425.406 422.984 426.375C404.575 430.25 339.91 437.938 325.611 437.938C322.394 437.938 318.998 436.938 313.315 434.344C302.483 429.344 292.296 421.906 289.257 416.812C287.148 413.312 284.789 405.781 280.75 389.969C279.749 386 278.033 379.656 276.996 375.812C272.528 359.781 270.097 356.125 256.442 344.969C252.868 342.031 249.186 339.188 248.256 338.594C245.397 336.781 241.894 335.531 238.176 335.031C236.138 334.75 233.994 334.219 232.993 333.781C231.098 332.938 226.058 329.906 226.058 329.625C226.058 329.531 226.773 328.75 227.631 327.875C229.74 325.875 230.848 323.344 230.598 321.156C230.24 318.031 227.845 314.844 224.843 313.5C223.198 312.781 219.767 312.5 217.765 312.938Z" fill="black"/>
</g>
<path d="M210.448 817.2C214.331 817.2 217.701 817.84 220.56 819.12C223.461 820.4 225.68 822.235 227.216 824.624C228.752 827.013 229.52 829.851 229.52 833.136C229.52 836.379 228.752 839.216 227.216 841.648C225.68 844.037 223.461 845.872 220.56 847.152C217.701 848.432 214.331 849.072 210.448 849.072H200.336V862H192.016V817.2H210.448ZM210.064 842.032C213.691 842.032 216.443 841.264 218.32 839.728C220.197 838.192 221.136 835.995 221.136 833.136C221.136 830.277 220.197 828.08 218.32 826.544C216.443 825.008 213.691 824.24 210.064 824.24H200.336V842.032H210.064ZM236.748 827.824H244.748V862H236.748V827.824ZM240.78 822.192C239.329 822.192 238.113 821.744 237.132 820.848C236.151 819.909 235.66 818.757 235.66 817.392C235.66 816.027 236.151 814.896 237.132 814C238.113 813.061 239.329 812.592 240.78 812.592C242.231 812.592 243.447 813.04 244.428 813.936C245.409 814.789 245.9 815.877 245.9 817.2C245.9 818.608 245.409 819.803 244.428 820.784C243.489 821.723 242.273 822.192 240.78 822.192ZM288.336 827.824V862H280.72V857.648C279.44 859.184 277.84 860.379 275.92 861.232C274 862.043 271.931 862.448 269.712 862.448C265.147 862.448 261.541 861.189 258.896 858.672C256.293 856.112 254.992 852.336 254.992 847.344V827.824H262.992V846.256C262.992 849.328 263.675 851.632 265.04 853.168C266.448 854.661 268.432 855.408 270.992 855.408C273.851 855.408 276.112 854.533 277.776 852.784C279.483 850.992 280.336 848.432 280.336 845.104V827.824H288.336ZM318.523 817.2C322.576 817.2 326.096 817.883 329.083 819.248C332.069 820.571 334.373 822.491 335.995 825.008C337.616 827.483 338.427 830.405 338.427 833.776C338.427 837.147 337.616 840.069 335.995 842.544C334.373 845.019 332.069 846.939 329.083 848.304C326.096 849.627 322.576 850.288 318.523 850.288H310.715V862H298.043V817.2H318.523ZM317.755 840.304C320.357 840.304 322.32 839.749 323.643 838.64C324.965 837.488 325.627 835.867 325.627 833.776C325.627 831.685 324.965 830.064 323.643 828.912C322.32 827.76 320.357 827.184 317.755 827.184H310.715V840.304H317.755ZM344.342 827.312H356.502V862H344.342V827.312ZM350.422 823.472C348.203 823.472 346.411 822.853 345.046 821.616C343.68 820.379 342.998 818.843 342.998 817.008C342.998 815.173 343.68 813.637 345.046 812.4C346.411 811.163 348.203 810.544 350.422 810.544C352.64 810.544 354.432 811.141 355.798 812.336C357.163 813.488 357.846 814.981 357.846 816.816C357.846 818.736 357.163 820.336 355.798 821.616C354.432 822.853 352.64 823.472 350.422 823.472ZM400.884 827.312V862H389.3V858.288C388.02 859.696 386.484 860.763 384.692 861.488C382.9 862.213 381.001 862.576 378.996 862.576C374.516 862.576 370.932 861.253 368.244 858.608C365.599 855.963 364.276 851.995 364.276 846.704V827.312H376.436V844.72C376.436 847.323 376.927 849.221 377.908 850.416C378.889 851.611 380.319 852.208 382.196 852.208C384.116 852.208 385.673 851.547 386.868 850.224C388.105 848.859 388.724 846.789 388.724 844.016V827.312H400.884ZM466.189 827.312L453.837 862H442.061L435.533 843.12L428.749 862H416.973L404.62 827.312H416.141L423.245 848.304L430.605 827.312H440.972L448.141 848.496L455.501 827.312H466.189ZM504.423 844.72C504.423 844.805 504.359 845.808 504.231 847.728H479.015C479.527 849.52 480.508 850.907 481.958 851.888C483.452 852.827 485.308 853.296 487.527 853.296C489.191 853.296 490.62 853.061 491.815 852.592C493.052 852.123 494.289 851.355 495.527 850.288L501.927 856.944C498.556 860.699 493.628 862.576 487.143 862.576C483.089 862.576 479.527 861.808 476.455 860.272C473.383 858.736 470.993 856.603 469.286 853.872C467.623 851.141 466.791 848.048 466.791 844.592C466.791 841.179 467.601 838.128 469.223 835.44C470.887 832.709 473.169 830.576 476.071 829.04C478.972 827.504 482.236 826.736 485.863 826.736C489.319 826.736 492.455 827.461 495.271 828.912C498.087 830.32 500.305 832.389 501.927 835.12C503.591 837.808 504.423 841.008 504.423 844.72ZM485.927 835.376C484.049 835.376 482.471 835.909 481.191 836.976C479.953 838.043 479.164 839.493 478.823 841.328H493.031C492.689 839.493 491.879 838.043 490.599 836.976C489.361 835.909 487.804 835.376 485.927 835.376ZM521.613 831.472C522.85 829.893 524.45 828.72 526.413 827.952C528.418 827.141 530.701 826.736 533.261 826.736V837.68C532.152 837.552 531.234 837.488 530.509 837.488C527.906 837.488 525.858 838.192 524.365 839.6C522.914 841.008 522.189 843.163 522.189 846.064V862H510.029V827.312H521.613V831.472Z" fill="black"/>
</g>
<defs>
<filter id="filter0_d" x="157.737" y="312.729" width="406.539" height="406.052" filterUnits="userSpaceOnUse" color-interpolation-filters="sRGB">
<feFlood flood-opacity="0" result="BackgroundImageFix"/>
<feColorMatrix in="SourceAlpha" type="matrix" values="0 0 0 0 0 0 0 0 0 0 0 0 0 0 0 0 0 0 127 0"/>
<feOffset dy="4"/>
<feGaussianBlur stdDeviation="2"/>
<feColorMatrix type="matrix" values="0 0 0 0 0 0 0 0 0 0 0 0 0 0 0 0 0 0 0.25 0"/>
<feBlend mode="normal" in2="BackgroundImageFix" result="effect1_dropShadow"/>
<feBlend mode="normal" in="SourceGraphic" in2="effect1_dropShadow" result="shape"/>
</filter>
<clipPath id="clip0">
<rect width="720" height="1024" fill="white"/>
</clipPath>
</defs>
</svg>
